<svg id="Layer_2" data-name="Layer 2" xmlns="http://www.w3.org/2000/svg" xmlns:xlink="http://www.w3.org/1999/xlink" viewBox="0 0 929.31 357.47"><defs><style>.cls-1{fill:gray;stroke:#333;stroke-width:2px;}.cls-1,.cls-2,.cls-3,.cls-4,.cls-5,.cls-6,.cls-7,.cls-8{stroke-miterlimit:10;}.cls-2{fill:none;stroke:#1a1a1a;}.cls-2,.cls-6{stroke-width:4px;}.cls-3{fill:#ccc;}.cls-3,.cls-4{stroke:#000;}.cls-4{fill:#e6e6e6;}.cls-5,.cls-7{stroke:#42210b;}.cls-5,.cls-7,.cls-8{stroke-width:5px;}.cls-5{fill:url(#linear-gradient);}.cls-6{stroke:#603813;fill:url(#linear-gradient-2);}.cls-7{fill:url(#linear-gradient-3);}.cls-8{font-size:100px;fill:#ffaa42;stroke:#fbb03b;font-family:Krungthep;}</style><linearGradient id="linear-gradient" x1="583.51" y1="181.91" x2="705.01" y2="181.91" gradientUnits="userSpaceOnUse"><stop offset="0" stop-color="#d49697"/><stop offset="0.16" stop-color="#d4968e"/><stop offset="0.43" stop-color="#d49674"/><stop offset="0.55" stop-color="#d49666"/><stop offset="0.99" stop-color="#c69c6d"/></linearGradient><linearGradient id="linear-gradient-2" x1="860.01" y1="184.12" x2="860.51" y2="184.12" gradientUnits="userSpaceOnUse"><stop offset="0" stop-color="#a67c52"/><stop offset="0.06" stop-color="#ad7e49"/><stop offset="0.17" stop-color="#c2852f"/><stop offset="0.3" stop-color="#e38f06"/><stop offset="0.31" stop-color="#e59003"/><stop offset="0.87" stop-color="#fbb0a2"/><stop offset="0.99" stop-color="#bf6f00"/></linearGradient><linearGradient id="linear-gradient-3" x1="774.56" y1="200.66" x2="907.58" y2="200.66" gradientUnits="userSpaceOnUse"><stop offset="0" stop-color="#c69c6d"/><stop offset="0.55" stop-color="#c69c6d"/><stop offset="0.87" stop-color="#a67c52"/><stop offset="0.99" stop-color="#bf6f00"/></linearGradient></defs><path class="cls-1" d="M40.59,146.14a40.59,40.59,0,1,0,40.59,40.59A40.59,40.59,0,0,0,40.59,146.14Zm24.19,52.38c-.94.77-1.87,1.53-2.8,2.27a5.31,5.31,0,0,1-3,7L41.56,214.3a5.7,5.7,0,0,1-.94.25,4,4,0,0,1-5.09,0c-3.79-2.71-8.71-3-12.23-6.25a17.16,17.16,0,0,1-3.95-5.72c-.7-1.56-1.23-3.62-2.67-4.7A5.36,5.36,0,0,1,15,191.37a4.52,4.52,0,0,1-1.54-3.64c.18-10.57,4.92-17.85,13.35-23.89a5.34,5.34,0,0,1,1.36-.7,5.08,5.08,0,0,1,3.46-3.42c2.45-.63,4.85-1.38,7.25-2.18a4.71,4.71,0,0,1,5,1.47,5.08,5.08,0,0,1,1.45-.2,4.56,4.56,0,0,1,4.46,3c5.16,1.25,9.72,3.92,12.33,9v0a5.26,5.26,0,0,1,1.07,1.79,26.85,26.85,0,0,1,1.08,13.11c-.17,1.73-.43,3.44-.74,5.13C66.31,192.33,67.86,196,64.78,198.52Z" transform="translate(1 -3.18)"/><circle class="cls-2" cx="41.79" cy="183.24" r="29.43"/><path class="cls-3" d="M69.22,153.66H422.94s5.8,5.08,5.8,10.88,5.8,15.94,4.35,20.29-1.45,22.47-2.9,24.65-4.35,12.32-4.35,12.32l-360.24-1C65.58,222.6,56.9,158.74,69.22,153.66Z" transform="translate(1 -3.18)"/><path class="cls-4" d="M430.19,209.48c-4.35,12.32,92.78-5.8,92.78-5.8h32.61l31.17,12.18-2.9-29.43,7.25-8.85L586,165.26l-47.84,11.6-18.85-2.18-57.26-9.42-33.34-.72S434.54,197.15,430.19,209.48Z" transform="translate(1 -3.18)"/><path class="cls-5" d="M627.34,355.89s-26.09-46.39-26.82-58.71-13.77-81.32-13.77-81.32l-2.9-29.43,7.25-8.85L586,165.26s-3.63-55.09-2.18-62.33,7.25-18.12,7.25-18.12,10.53-64.51,14.33-71.76,15.39-11.6,29.88,0,23.2,6.52,27.55,5.8-6.53-15,18.12-13S701.27,16,701.27,24.64c0,1.59.27,4.15.63,7.42.26,2.29.56,4.91.85,7.8,1.59,15.62,2.9,38.82-5.1,55.82-11.6,24.64-1.45,47.11-6.52,68.86s1.13,40.9-4.35,62.78c-3.84,15.31,1.68,34.34,3.12,41.59S709.52,288.48,704,306.6c0,.07-.47,1.52-1,3.5-.46,1.62-.77,2.82-.82,3-9.66,36.38-16.77,42.81-16.77,42.81C675.9,361,627.34,355.89,627.34,355.89Z" transform="translate(1 -3.18)"/><path class="cls-6" d="M718,21c3.38,6.77,13.77,14.5,18.12,14.5S781,23.19,790.43,21s12.32,17.4,12.32,29.72-1.45,41.31,0,55.81-17.4,55.09-17.4,68.86-6.52,37.86-5.79,51.91,12.32,45.22,15.94,59c2.72,10.33,18.49,23.92,19.47,35,.33,3.68-1,7.08-5,10-16,11.59-58.71,20.29-71,18.12s-35-42.77-35-42.77l-3.09-20.78-11-16.91-4.1-22.51V215.86l3.88-41.9,2.88-20.3s-1.19-30.81-.43-36.76S702,79,702,79l.75-39.15-1.48-15.22S714.32,13.77,718,21Z" transform="translate(1 -3.18)"/><path class="cls-7" d="M828.84,344.29c-3.55-5.07-11.17-6.81-13.1-9.57L808.3,325l-9.24-31.16-10.49-31.27-4.12-12.3-9.89-22.9s.74-24.07,5-30.17-1.24-29.76,3.62-32.61,19-45.28,19.27-51.64-.36-26.6-.31-30.25-6.48-21.74-3-21.76-3.63-8.7,7.24,0,21.75,13,31.9,10.14S856.39,66,870.88,66s16.68-5.8,29,1.45S906.4,89.15,905,97.85,895.53,141.34,891.9,150c-1.81,4.35-4,9.63-5.79,15.41a76.16,76.16,0,0,0-3.63,18.35c-.72,12.63,7.25,38,6.53,48.15s7.24,23.92,5.07,34.06,4.35,20.3-3.63,25.37-13.77,15.95-22.47,23.2-2.89,18.84-10.87,22.47-9.42,7.24-18.84,7.24-28.27-13-28.27-13l-34-97.85-.19-26.1" transform="translate(1 -3.18)"/><path class="cls-4" d="M926,161.64c1.45-1.45,0-6,0-6L889.09,157l-3,8.46Z" transform="translate(1 -3.18)"/><path class="cls-4" d="M886.12,215.86s39-.87,40.5,0,1.15,5.94,1.15,5.94H889.12Z" transform="translate(1 -3.18)"/><text class="cls-8" transform="translate(63.61 145.54)">Flame Delicious</text></svg>